name C:\Users\u0101727\Documents\MyRepositories\predictsim_mtp\Results\predictsim_mtp\Case_80\motion.mot
datacolumns 124
datarows 4
range 0.28942100 0.30678626
endheader 
time	pelvis_tilt	pelvis_list	pelvis_rotation	pelvis_tx	pelvis_ty	pelvis_tz	hip_flexion_l	hip_adduction_l	hip_rotation_l	hip_flexion_r	hip_adduction_r	hip_rotation_r	knee_angle_l	knee_angle_r	ankle_angle_l	ankle_angle_r	subtalar_angle_l	subtalar_angle_r	mtp_angle_l	mtp_angle_r	lumbar_extension	lumbar_bending	lumbar_rotation	arm_flex_l	arm_add_l	arm_rot_l	arm_flex_r	arm_add_r	arm_rot_r	elbow_flex_l	elbow_flex_r	glut_med1_l/activation	glut_med2_l/activation	glut_med3_l/activation	glut_min1_l/activation	glut_min2_l/activation	glut_min3_l/activation	semimem_l/activation	semiten_l/activation	bifemlh_l/activation	bifemsh_l/activation	sar_l/activation	add_long_l/activation	add_brev_l/activation	add_mag1_l/activation	add_mag2_l/activation	add_mag3_l/activation	tfl_l/activation	pect_l/activation	grac_l/activation	glut_max1_l/activation	glut_max2_l/activation	glut_max3_l/activation	iliacus_l/activation	psoas_l/activation	quad_fem_l/activation	gem_l/activation	peri_l/activation	rect_fem_l/activation	vas_med_l/activation	vas_int_l/activation	vas_lat_l/activation	med_gas_l/activation	lat_gas_l/activation	soleus_l/activation	tib_post_l/activation	flex_dig_l/activation	flex_hal_l/activation	tib_ant_l/activation	per_brev_l/activation	per_long_l/activation	per_tert_l/activation	ext_dig_l/activation	ext_hal_l/activation	ercspn_l/activation	intobl_l/activation	extobl_l/activation	glut_med1_r/activation	glut_med2_r/activation	glut_med3_r/activation	glut_min1_r/activation	glut_min2_r/activation	glut_min3_r/activation	semimem_r/activation	semiten_r/activation	bifemlh_r/activation	bifemsh_r/activation	sar_r/activation	add_long_r/activation	add_brev_r/activation	add_mag1_r/activation	add_mag2_r/activation	add_mag3_r/activation	tfl_r/activation	pect_r/activation	grac_r/activation	glut_max1_r/activation	glut_max2_r/activation	glut_max3_r/activation	iliacus_r/activation	psoas_r/activation	quad_fem_r/activation	gem_r/activation	peri_r/activation	rect_fem_r/activation	vas_med_r/activation	vas_int_r/activation	vas_lat_r/activation	med_gas_r/activation	lat_gas_r/activation	soleus_r/activation	tib_post_r/activation	flex_dig_r/activation	flex_hal_r/activation	tib_ant_r/activation	per_brev_r/activation	per_long_r/activation	per_tert_r/activation	ext_dig_r/activation	ext_hal_r/activation	ercspn_r/activation	intobl_r/activation	extobl_r/activation	
          0.28942100	         -2.74874518	          0.13030772	          4.80274979	          0.39776558	          0.93170298	          0.00245948	         11.46549787	         -0.65386407	         -4.21176265	          6.15265584	          5.00432164	          6.07319015	        -52.40751126	        -12.41610322	         12.05564838	          9.15433174	          4.98459336	         -7.30962805	          0.02316364	          6.93248672	         -1.60245449	          1.05656057	         -1.08382734	         -1.25617572	        -13.45120774	         13.91922295	         -5.70770382	        -13.45224348	          9.13944330	         75.50601569	          2.02501224	          0.05000004	          0.05000004	          0.05000003	          0.05000034	          0.05000022	          0.05000014	          0.05000041	          0.05000005	          0.05000002	          0.50723589	          0.24113405	          0.13486801	          0.21211445	          0.05000201	          0.05000030	          0.05000003	          0.46349868	          0.31470827	          0.20193289	          0.05000011	          0.05000004	          0.05000002	          0.10449726	          0.11329407	          0.12320570	          0.07868626	          0.05000016	          0.05000022	          0.05000003	          0.05000003	          0.05000002	          0.05000001	          0.05000002	          0.05000000	          0.05000003	          0.05000018	          0.05000013	          0.39067032	          0.13759664	          0.05940362	          0.67765189	          0.45923041	          0.55267964	          0.09045345	          0.08542291	          0.05000019	          0.43234691	          0.29755365	          0.22308048	          0.57738542	          0.51596029	          0.41993841	          0.08701755	          0.07326838	          0.07262441	          0.05000007	          0.05000022	          0.05000005	          0.05000013	          0.05000074	          0.05022190	          0.13160727	          0.06887828	          0.05000029	          0.05000023	          0.17109913	          0.12018636	          0.09943019	          0.05000003	          0.05000003	          0.05000010	          0.05000044	          0.05000850	          0.15550182	          0.14525123	          0.14358590	          0.11877234	          0.22136509	          0.22227972	          0.08507332	          0.30492736	          0.15486233	          0.15221714	          0.05489631	          0.05000069	          0.05000071	          0.05000081	          0.05000029	          0.05000093	          0.05000006	          0.05000003	          0.05000003	
          0.29520942	         -2.74534841	          0.25202023	          4.53403446	          0.40442407	          0.93236770	          0.00272802	         12.43237033	         -0.47153723	         -4.34780371	          5.40083436	          4.87625339	          6.29211264	        -52.27887122	        -11.82551287	         12.49840766	          8.97412476	          4.75349020	         -7.18597602	          0.00876218	          7.37155998	         -1.65829087	          1.01881074	         -1.05566660	         -1.21160275	        -13.45147616	         13.64706275	         -5.14448870	        -13.45143154	          9.11095460	         73.84185912	          2.52227853	          0.05000004	          0.05000004	          0.05000003	          0.05000033	          0.05000022	          0.05000014	          0.05000035	          0.05000004	          0.05000002	          0.49010698	          0.23970171	          0.13653731	          0.20992264	          0.05000135	          0.05000028	          0.05000003	          0.45300516	          0.31038067	          0.18416577	          0.05000010	          0.05000003	          0.05000002	          0.10448150	          0.11369631	          0.12610476	          0.09060031	          0.05000017	          0.05000023	          0.05000004	          0.05000004	          0.05000003	          0.05000001	          0.05000002	          0.05000000	          0.05000003	          0.05000019	          0.05000014	          0.39641999	          0.14175697	          0.06407009	          0.66579617	          0.45446507	          0.54279229	          0.09035650	          0.08485714	          0.05041239	          0.42126809	          0.29266469	          0.22382733	          0.56972743	          0.51292094	          0.41885150	          0.08624416	          0.07065063	          0.07104392	          0.05000008	          0.05000023	          0.05000005	          0.05000012	          0.05000067	          0.05000186	          0.12591771	          0.09504001	          0.05000027	          0.05000023	          0.16883548	          0.11864364	          0.09620617	          0.05000003	          0.05000003	          0.05000010	          0.05000045	          0.05000068	          0.15550510	          0.13727742	          0.13561884	          0.11277976	          0.23377154	          0.23837265	          0.08364064	          0.30593116	          0.15309405	          0.14921342	          0.05006633	          0.05000093	          0.05006501	          0.05000131	          0.05000036	          0.05000121	          0.05000003	          0.05000004	          0.05000003	
          0.30099784	         -2.74188583	          0.37162067	          4.26192912	          0.41107466	          0.93296942	          0.00299457	         13.39018775	         -0.29647535	         -4.48010374	          4.64728250	          4.74345323	          6.50621060	        -52.10031247	        -11.22751113	         12.90710976	          8.79264899	          4.51943741	         -7.06401558	         -0.00200542	          7.80891621	         -1.71401813	          0.98221908	         -1.02662075	         -1.15744024	        -13.45172224	         13.38152182	         -4.59435748	        -13.45076531	          9.06839853	         72.13903587	          3.09065928	          0.05000004	          0.05000004	          0.05000003	          0.05000033	          0.05000022	          0.05000014	          0.05000029	          0.05000004	          0.05000002	          0.46786580	          0.24067259	          0.13912105	          0.20734052	          0.05000105	          0.05000026	          0.05000003	          0.44220148	          0.30701812	          0.16796190	          0.05000010	          0.05000003	          0.05000002	          0.10559440	          0.11509248	          0.13094029	          0.10502815	          0.05000017	          0.05000023	          0.05000005	          0.05000005	          0.05000003	          0.05000001	          0.05000003	          0.05000000	          0.05000003	          0.05000021	          0.05000015	          0.40127246	          0.14531292	          0.06901384	          0.64949003	          0.44988124	          0.53126020	          0.08961981	          0.08403884	          0.05333386	          0.40975238	          0.28665583	          0.22378965	          0.55578491	          0.50526595	          0.41597473	          0.08485335	          0.06730040	          0.06897127	          0.05000008	          0.05000025	          0.05000005	          0.05000012	          0.05000065	          0.05000242	          0.11901227	          0.11597499	          0.05000028	          0.05000023	          0.16183513	          0.11490771	          0.09106699	          0.05000003	          0.05000003	          0.05000011	          0.05000049	          0.05045620	          0.15473405	          0.13021212	          0.12838805	          0.10754259	          0.24645260	          0.25498341	          0.08284627	          0.30763008	          0.15242725	          0.14747222	          0.05000015	          0.05000322	          0.05395393	          0.05000098	          0.05000028	          0.05000080	          0.05000004	          0.05000004	          0.05000003	
          0.30678626	         -2.73836776	          0.48901286	          3.98657805	          0.41772145	          0.93350690	          0.00325900	         14.33581092	         -0.12904573	         -4.60840247	          3.89229529	          4.60616921	          6.71546193	        -51.86821951	        -10.62326986	         13.27899689	          8.61085944	          4.28335118	         -6.94358643	         -0.00840623	          8.24341204	         -1.76933237	          0.94685154	         -0.99674117	         -1.09397264	        -13.45192846	         13.12350903	         -4.06009003	        -13.45026440	          9.00952256	         70.39837182	          3.73452554	          0.05000004	          0.05000004	          0.05000004	          0.05000033	          0.05000023	          0.05000014	          0.05000024	          0.05000004	          0.05000001	          0.43571399	          0.24451238	          0.14250120	          0.20385315	          0.05000084	          0.05000024	          0.05000003	          0.43125617	          0.30440918	          0.15318373	          0.05000009	          0.05000003	          0.05000002	          0.10794582	          0.11755387	          0.13578278	          0.11967581	          0.05000018	          0.05000020	          0.05000006	          0.05000006	          0.05000004	          0.05000001	          0.05000003	          0.05000000	          0.05000003	          0.05000022	          0.05000016	          0.40533322	          0.14846034	          0.07415055	          0.62899914	          0.44568146	          0.51811122	          0.08838729	          0.08295381	          0.05669256	          0.39829734	          0.27964983	          0.22138164	          0.54272983	          0.49735164	          0.41148734	          0.08355941	          0.06412556	          0.06694038	          0.05000009	          0.05000028	          0.05000005	          0.05000012	          0.05000060	          0.05000189	          0.11182266	          0.13558021	          0.05000028	          0.05000023	          0.15503313	          0.11150303	          0.08477618	          0.05000003	          0.05000003	          0.05000011	          0.05000052	          0.05928828	          0.15277868	          0.12258640	          0.12087108	          0.10176555	          0.25881793	          0.27096115	          0.08134087	          0.30922912	          0.15207728	          0.14528942	          0.05000020	          0.05000317	          0.05572917	          0.05000103	          0.05000029	          0.05000083	          0.05000003	          0.05000004	          0.05000003	
